<svg xmlns="http://www.w3.org/2000/svg" xmlns:xlink="http://www.w3.org/1999/xlink" width="500" zoomAndPan="magnify" viewBox="0 0 375 374.999991" height="500" preserveAspectRatio="xMidYMid meet" version="1.0"><defs><g/><clipPath id="id1"><path d="M 136.972656 90.355469 L 236 90.355469 L 236 213.355469 L 136.972656 213.355469 Z M 136.972656 90.355469 " clip-rule="nonzero"/></clipPath><clipPath id="id2"><path d="M 177 90.355469 L 236 90.355469 L 236 163 L 177 163 Z M 177 90.355469 " clip-rule="nonzero"/></clipPath></defs><g fill="#0d0d0d" fill-opacity="1"><g transform="translate(101.709958, 252.470242)"><g><path d="M 20.671875 -8.234375 C 20.671875 -6.554688 20.242188 -5.0625 19.390625 -3.75 C 18.535156 -2.445312 17.300781 -1.429688 15.6875 -0.703125 C 14.082031 0.015625 12.195312 0.375 10.03125 0.375 C 8.226562 0.375 6.710938 0.25 5.484375 0 C 4.265625 -0.257812 2.992188 -0.707031 1.671875 -1.34375 L 1.671875 -7.875 C 3.066406 -7.15625 4.519531 -6.59375 6.03125 -6.1875 C 7.539062 -5.78125 8.925781 -5.578125 10.1875 -5.578125 C 11.269531 -5.578125 12.066406 -5.765625 12.578125 -6.140625 C 13.085938 -6.523438 13.34375 -7.015625 13.34375 -7.609375 C 13.34375 -7.984375 13.238281 -8.304688 13.03125 -8.578125 C 12.832031 -8.859375 12.503906 -9.140625 12.046875 -9.421875 C 11.597656 -9.710938 10.394531 -10.296875 8.4375 -11.171875 C 6.675781 -11.972656 5.351562 -12.75 4.46875 -13.5 C 3.582031 -14.257812 2.925781 -15.128906 2.5 -16.109375 C 2.070312 -17.085938 1.859375 -18.242188 1.859375 -19.578125 C 1.859375 -22.078125 2.765625 -24.023438 4.578125 -25.421875 C 6.398438 -26.816406 8.898438 -27.515625 12.078125 -27.515625 C 14.890625 -27.515625 17.753906 -26.863281 20.671875 -25.5625 L 18.421875 -19.90625 C 15.890625 -21.070312 13.703125 -21.65625 11.859375 -21.65625 C 10.898438 -21.65625 10.203125 -21.488281 9.765625 -21.15625 C 9.335938 -20.820312 9.125 -20.40625 9.125 -19.90625 C 9.125 -19.375 9.398438 -18.894531 9.953125 -18.46875 C 10.503906 -18.050781 12 -17.289062 14.4375 -16.1875 C 16.769531 -15.132812 18.390625 -14.003906 19.296875 -12.796875 C 20.210938 -11.585938 20.671875 -10.066406 20.671875 -8.234375 Z M 20.671875 -8.234375 "/></g></g></g><g fill="#0d0d0d" fill-opacity="1"><g transform="translate(127.39909, 252.470242)"><g><path d="M 19.578125 0 L 18.234375 -5.078125 L 9.421875 -5.078125 L 8.046875 0 L 0 0 L 8.84375 -27.234375 L 18.625 -27.234375 L 27.59375 0 Z M 16.71875 -11.09375 L 15.546875 -15.546875 C 15.273438 -16.535156 14.941406 -17.816406 14.546875 -19.390625 C 14.160156 -20.960938 13.90625 -22.085938 13.78125 -22.765625 C 13.675781 -22.140625 13.457031 -21.101562 13.125 -19.65625 C 12.800781 -18.207031 12.078125 -15.351562 10.953125 -11.09375 Z M 16.71875 -11.09375 "/></g></g></g><g fill="#0d0d0d" fill-opacity="1"><g transform="translate(158.746238, 252.470242)"><g><path d="M 14.75 0 L 9.203125 -19.53125 L 9.03125 -19.53125 C 9.289062 -16.207031 9.421875 -13.625 9.421875 -11.78125 L 9.421875 0 L 2.9375 0 L 2.9375 -27.125 L 12.6875 -27.125 L 18.34375 -7.875 L 18.5 -7.875 L 24.046875 -27.125 L 33.828125 -27.125 L 33.828125 0 L 27.09375 0 L 27.09375 -11.890625 C 27.09375 -12.515625 27.097656 -13.203125 27.109375 -13.953125 C 27.128906 -14.703125 27.21875 -16.550781 27.375 -19.5 L 27.203125 -19.5 L 21.734375 0 Z M 14.75 0 "/></g></g></g><g fill="#0d0d0d" fill-opacity="1"><g transform="translate(199.238962, 252.470242)"><g><path d="M 2.9375 0 L 2.9375 -27.125 L 10.296875 -27.125 L 10.296875 0 Z M 2.9375 0 "/></g></g></g><g fill="#0d0d0d" fill-opacity="1"><g transform="translate(216.227739, 252.470242)"><g><path d="M 10.265625 -9.875 L 10.265625 0 L 2.9375 0 L 2.9375 -27.125 L 11.8125 -27.125 C 19.1875 -27.125 22.875 -24.453125 22.875 -19.109375 C 22.875 -15.972656 21.34375 -13.539062 18.28125 -11.8125 L 26.1875 0 L 17.875 0 L 12.109375 -9.875 Z M 10.265625 -15.375 L 11.640625 -15.375 C 14.191406 -15.375 15.46875 -16.507812 15.46875 -18.78125 C 15.46875 -20.644531 14.210938 -21.578125 11.703125 -21.578125 L 10.265625 -21.578125 Z M 10.265625 -15.375 "/></g></g></g><g fill="#0d0d0d" fill-opacity="1"><g transform="translate(245.701251, 252.470242)"><g><path d="M 19.578125 0 L 18.234375 -5.078125 L 9.421875 -5.078125 L 8.046875 0 L 0 0 L 8.84375 -27.234375 L 18.625 -27.234375 L 27.59375 0 Z M 16.71875 -11.09375 L 15.546875 -15.546875 C 15.273438 -16.535156 14.941406 -17.816406 14.546875 -19.390625 C 14.160156 -20.960938 13.90625 -22.085938 13.78125 -22.765625 C 13.675781 -22.140625 13.457031 -21.101562 13.125 -19.65625 C 12.800781 -18.207031 12.078125 -15.351562 10.953125 -11.09375 Z M 16.71875 -11.09375 "/></g></g></g><g fill="#0d0d0d" fill-opacity="1"><g transform="translate(119.826662, 279.523107)"><g><path d="M 9.1875 0 L 5.734375 -12.15625 L 5.625 -12.15625 C 5.789062 -10.09375 5.875 -8.484375 5.875 -7.328125 L 5.875 0 L 1.828125 0 L 1.828125 -16.890625 L 7.90625 -16.890625 L 11.421875 -4.890625 L 11.515625 -4.890625 L 14.96875 -16.890625 L 21.0625 -16.890625 L 21.0625 0 L 16.859375 0 L 16.859375 -7.40625 C 16.859375 -7.789062 16.863281 -8.21875 16.875 -8.6875 C 16.894531 -9.15625 16.945312 -10.304688 17.03125 -12.140625 L 16.9375 -12.140625 L 13.53125 0 Z M 9.1875 0 "/></g></g></g><g fill="#0d0d0d" fill-opacity="1"><g transform="translate(153.704462, 279.523107)"><g><path d="M 16.1875 -16.890625 L 16.1875 -6.71875 C 16.1875 -4.507812 15.554688 -2.796875 14.296875 -1.578125 C 13.046875 -0.367188 11.242188 0.234375 8.890625 0.234375 C 6.585938 0.234375 4.816406 -0.351562 3.578125 -1.53125 C 2.347656 -2.707031 1.734375 -4.40625 1.734375 -6.625 L 1.734375 -16.890625 L 6.3125 -16.890625 L 6.3125 -6.984375 C 6.3125 -5.785156 6.535156 -4.914062 6.984375 -4.375 C 7.429688 -3.832031 8.09375 -3.5625 8.96875 -3.5625 C 9.894531 -3.5625 10.566406 -3.828125 10.984375 -4.359375 C 11.410156 -4.898438 11.625 -5.78125 11.625 -7 L 11.625 -16.890625 Z M 16.1875 -16.890625 "/></g></g></g><g fill="#0d0d0d" fill-opacity="1"><g transform="translate(182.614553, 279.523107)"><g><path d="M 6.390625 -6.140625 L 6.390625 0 L 1.828125 0 L 1.828125 -16.890625 L 7.359375 -16.890625 C 11.953125 -16.890625 14.25 -15.222656 14.25 -11.890625 C 14.25 -9.941406 13.289062 -8.429688 11.375 -7.359375 L 16.296875 0 L 11.125 0 L 7.546875 -6.140625 Z M 6.390625 -9.578125 L 7.25 -9.578125 C 8.84375 -9.578125 9.640625 -10.28125 9.640625 -11.6875 C 9.640625 -12.851562 8.851562 -13.4375 7.28125 -13.4375 L 6.390625 -13.4375 Z M 6.390625 -9.578125 "/></g></g></g><g fill="#0d0d0d" fill-opacity="1"><g transform="translate(209.629983, 279.523107)"><g><path d="M 12.1875 0 L 11.359375 -3.171875 L 5.875 -3.171875 L 5.015625 0 L 0 0 L 5.515625 -16.953125 L 11.59375 -16.953125 L 17.171875 0 Z M 10.40625 -6.90625 L 9.671875 -9.671875 C 9.503906 -10.296875 9.300781 -11.09375 9.0625 -12.0625 C 8.820312 -13.039062 8.660156 -13.742188 8.578125 -14.171875 C 8.515625 -13.773438 8.378906 -13.125 8.171875 -12.21875 C 7.960938 -11.320312 7.507812 -9.550781 6.8125 -6.90625 Z M 10.40625 -6.90625 "/></g></g></g><g fill="#0d0d0d" fill-opacity="1"><g transform="translate(237.812254, 279.523107)"><g><path d="M 16.15625 -8.796875 C 16.15625 -5.984375 15.378906 -3.8125 13.828125 -2.28125 C 12.273438 -0.757812 10.09375 0 7.28125 0 L 1.828125 0 L 1.828125 -16.890625 L 7.671875 -16.890625 C 10.378906 -16.890625 12.46875 -16.195312 13.9375 -14.8125 C 15.414062 -13.425781 16.15625 -11.421875 16.15625 -8.796875 Z M 11.421875 -8.640625 C 11.421875 -10.191406 11.113281 -11.335938 10.5 -12.078125 C 9.894531 -12.828125 8.96875 -13.203125 7.71875 -13.203125 L 6.390625 -13.203125 L 6.390625 -3.75 L 7.40625 -3.75 C 8.789062 -3.75 9.804688 -4.148438 10.453125 -4.953125 C 11.097656 -5.753906 11.421875 -6.984375 11.421875 -8.640625 Z M 11.421875 -8.640625 "/></g></g></g><g clip-path="url(#id1)"><path fill="#0d0d0d" d="M 211.039062 193.832031 C 208.339844 195.445312 205.378906 195.5 202.355469 195.5 C 181.09375 195.46875 159.828125 195.492188 138.566406 195.464844 C 137.40625 195.460938 136.972656 195.742188 136.976562 196.980469 C 136.996094 202.425781 136.996094 207.871094 137 213.316406 L 207.644531 213.316406 C 209.636719 213.113281 211.617188 212.75 213.507812 212.210938 C 228.457031 207.984375 238.222656 192.800781 234.421875 176.460938 C 231.210938 162.65625 219.097656 153.292969 204.832031 153.261719 C 188.789062 153.222656 172.746094 153.238281 156.699219 153.273438 C 155.433594 153.273438 155.046875 152.933594 155.050781 151.648438 C 155.089844 138.082031 155.066406 124.515625 155.0625 110.953125 C 155.0625 110.570312 155.082031 110.183594 155.0625 109.796875 C 155.015625 108.871094 155.503906 108.558594 156.328125 108.769531 C 158.234375 109.265625 160.25 109.558594 162.015625 110.382812 C 171.757812 114.921875 176.910156 122.535156 177.042969 133.339844 C 177.089844 137.378906 177.085938 141.421875 177.019531 145.457031 C 177 146.679688 177.429688 147.007812 178.609375 146.996094 C 183.585938 146.945312 188.5625 146.945312 193.539062 146.992188 C 194.683594 147.003906 195.175781 146.742188 195.15625 145.484375 C 195.085938 141.058594 195.273438 136.628906 195.074219 132.210938 C 194.921875 128.820312 194.667969 125.363281 193.871094 122.078125 C 189.5625 104.328125 172.632812 90.886719 154.273438 90.507812 C 148.957031 90.398438 143.640625 90.476562 138.324219 90.472656 C 137.945312 90.472656 137.566406 90.527344 137.0625 90.566406 C 137.027344 90.964844 136.984375 91.199219 136.984375 91.433594 C 136.988281 117.550781 137.003906 143.671875 136.972656 169.789062 C 136.972656 171.152344 137.515625 171.351562 138.695312 171.347656 C 156.191406 171.3125 173.683594 171.316406 191.179688 171.304688 C 195.769531 171.304688 200.363281 171.257812 204.953125 171.316406 C 210.523438 171.382812 215.257812 175.015625 216.648438 180.171875 C 218.082031 185.480469 215.804688 190.972656 211.039062 193.832031 Z M 211.039062 193.832031 " fill-opacity="1" fill-rule="nonzero"/></g><g clip-path="url(#id2)"><path fill="#0d0d0d" d="M 177.421875 90.558594 C 177.925781 90.535156 178.378906 90.492188 178.832031 90.488281 C 183.664062 90.484375 188.496094 90.472656 193.328125 90.484375 C 211.941406 90.539062 228.726562 103.203125 233.621094 121.109375 C 234.550781 124.5 235.035156 128.097656 235.105469 131.613281 C 235.300781 141.367188 235.171875 151.132812 235.171875 160.894531 C 235.171875 161.316406 235.121094 161.738281 235.09375 162.160156 C 234.917969 162.308594 234.738281 162.453125 234.5625 162.601562 C 234.394531 162.226562 234.292969 161.796875 234.050781 161.476562 C 229.882812 155.964844 224.519531 152.003906 218.09375 149.480469 C 217.183594 149.121094 217.125 148.5625 217.125 147.8125 C 217.128906 142.957031 217.136719 138.097656 217.128906 133.242188 C 217.101562 121.839844 210.121094 112.566406 199.148438 109.34375 C 199.054688 109.320312 198.960938 109.261719 198.871094 109.265625 C 195.855469 109.332031 194.324219 107.46875 192.765625 105.164062 C 189.058594 99.683594 184.242188 95.253906 178.664062 91.65625 C 178.300781 91.421875 177.933594 91.1875 177.578125 90.945312 C 177.519531 90.902344 177.511719 90.789062 177.421875 90.558594 Z M 177.421875 90.558594 " fill-opacity="1" fill-rule="nonzero"/></g></svg>