<svg xmlns="http://www.w3.org/2000/svg" xmlns:xlink="http://www.w3.org/1999/xlink" width="500" zoomAndPan="magnify" viewBox="0 0 375 374.999991" height="500" preserveAspectRatio="xMidYMid meet" version="1.0"><defs><g/><clipPath id="id1"><path d="M 72.355469 1.605469 L 304 1.605469 L 304 292.605469 L 72.355469 292.605469 Z M 72.355469 1.605469 " clip-rule="nonzero"/></clipPath><clipPath id="id2"><path d="M 167 1.605469 L 304 1.605469 L 304 173 L 167 173 Z M 167 1.605469 " clip-rule="nonzero"/></clipPath></defs><g fill="#0d0d0d" fill-opacity="1"><g transform="translate(70.015856, 342.858351)"><g><path d="M 28.296875 -11.28125 C 28.296875 -8.976562 27.710938 -6.929688 26.546875 -5.140625 C 25.378906 -3.359375 23.691406 -1.96875 21.484375 -0.96875 C 19.285156 0.0195312 16.707031 0.515625 13.75 0.515625 C 11.269531 0.515625 9.191406 0.34375 7.515625 0 C 5.835938 -0.351562 4.09375 -0.960938 2.28125 -1.828125 L 2.28125 -10.765625 C 4.195312 -9.785156 6.1875 -9.019531 8.25 -8.46875 C 10.320312 -7.914062 12.222656 -7.640625 13.953125 -7.640625 C 15.441406 -7.640625 16.53125 -7.898438 17.21875 -8.421875 C 17.914062 -8.941406 18.265625 -9.609375 18.265625 -10.421875 C 18.265625 -10.921875 18.125 -11.363281 17.84375 -11.75 C 17.5625 -12.132812 17.113281 -12.519531 16.5 -12.90625 C 15.882812 -13.289062 14.238281 -14.085938 11.5625 -15.296875 C 9.132812 -16.398438 7.316406 -17.46875 6.109375 -18.5 C 4.898438 -19.53125 4.003906 -20.710938 3.421875 -22.046875 C 2.835938 -23.390625 2.546875 -24.972656 2.546875 -26.796875 C 2.546875 -30.222656 3.789062 -32.890625 6.28125 -34.796875 C 8.769531 -36.710938 12.191406 -37.671875 16.546875 -37.671875 C 20.390625 -37.671875 24.304688 -36.785156 28.296875 -35.015625 L 25.234375 -27.265625 C 21.753906 -28.859375 18.753906 -29.65625 16.234375 -29.65625 C 14.929688 -29.65625 13.984375 -29.425781 13.390625 -28.96875 C 12.796875 -28.507812 12.5 -27.941406 12.5 -27.265625 C 12.5 -26.535156 12.875 -25.878906 13.625 -25.296875 C 14.382812 -24.722656 16.429688 -23.675781 19.765625 -22.15625 C 22.960938 -20.71875 25.179688 -19.171875 26.421875 -17.515625 C 27.671875 -15.867188 28.296875 -13.789062 28.296875 -11.28125 Z M 28.296875 -11.28125 "/></g></g></g><g fill="#0d0d0d" fill-opacity="1"><g transform="translate(105.195529, 342.858351)"><g><path d="M 26.796875 0 L 24.96875 -6.96875 L 12.90625 -6.96875 L 11.03125 0 L 0 0 L 12.125 -37.296875 L 25.5 -37.296875 L 37.78125 0 Z M 22.890625 -15.1875 L 21.296875 -21.296875 C 20.921875 -22.648438 20.460938 -24.398438 19.921875 -26.546875 C 19.390625 -28.703125 19.039062 -30.242188 18.875 -31.171875 C 18.71875 -30.304688 18.414062 -28.882812 17.96875 -26.90625 C 17.519531 -24.925781 16.523438 -21.019531 14.984375 -15.1875 Z M 22.890625 -15.1875 "/></g></g></g><g fill="#0d0d0d" fill-opacity="1"><g transform="translate(148.123505, 342.858351)"><g><path d="M 20.203125 0 L 12.59375 -26.75 L 12.375 -26.75 C 12.726562 -22.195312 12.90625 -18.65625 12.90625 -16.125 L 12.90625 0 L 4.015625 0 L 4.015625 -37.140625 L 17.375 -37.140625 L 25.125 -10.765625 L 25.328125 -10.765625 L 32.921875 -37.140625 L 46.3125 -37.140625 L 46.3125 0 L 37.09375 0 L 37.09375 -16.28125 C 37.09375 -17.132812 37.101562 -18.078125 37.125 -19.109375 C 37.15625 -20.140625 37.269531 -22.671875 37.46875 -26.703125 L 37.25 -26.703125 L 29.75 0 Z M 20.203125 0 "/></g></g></g><g fill="#0d0d0d" fill-opacity="1"><g transform="translate(203.575782, 342.858351)"><g><path d="M 4.015625 0 L 4.015625 -37.140625 L 14.09375 -37.140625 L 14.09375 0 Z M 4.015625 0 "/></g></g></g><g fill="#0d0d0d" fill-opacity="1"><g transform="translate(226.840858, 342.858351)"><g><path d="M 14.046875 -13.515625 L 14.046875 0 L 4.015625 0 L 4.015625 -37.140625 L 16.1875 -37.140625 C 26.28125 -37.140625 31.328125 -33.484375 31.328125 -26.171875 C 31.328125 -21.867188 29.226562 -18.539062 25.03125 -16.1875 L 35.84375 0 L 24.46875 0 L 16.59375 -13.515625 Z M 14.046875 -21.0625 L 15.921875 -21.0625 C 19.429688 -21.0625 21.1875 -22.609375 21.1875 -25.703125 C 21.1875 -28.265625 19.46875 -29.546875 16.03125 -29.546875 L 14.046875 -29.546875 Z M 14.046875 -21.0625 "/></g></g></g><g fill="#0d0d0d" fill-opacity="1"><g transform="translate(267.203006, 342.858351)"><g><path d="M 26.796875 0 L 24.96875 -6.96875 L 12.90625 -6.96875 L 11.03125 0 L 0 0 L 12.125 -37.296875 L 25.5 -37.296875 L 37.78125 0 Z M 22.890625 -15.1875 L 21.296875 -21.296875 C 20.921875 -22.648438 20.460938 -24.398438 19.921875 -26.546875 C 19.390625 -28.703125 19.039062 -30.242188 18.875 -31.171875 C 18.71875 -30.304688 18.414062 -28.882812 17.96875 -26.90625 C 17.519531 -24.925781 16.523438 -21.019531 14.984375 -15.1875 Z M 22.890625 -15.1875 "/></g></g></g><g fill="#0d0d0d" fill-opacity="1"><g transform="translate(110.214928, 369.150476)"><g><path d="M 10.484375 0 L 6.546875 -13.890625 L 6.421875 -13.890625 C 6.609375 -11.523438 6.703125 -9.6875 6.703125 -8.375 L 6.703125 0 L 2.078125 0 L 2.078125 -19.28125 L 9.015625 -19.28125 L 13.046875 -5.59375 L 13.15625 -5.59375 L 17.09375 -19.28125 L 24.046875 -19.28125 L 24.046875 0 L 19.265625 0 L 19.265625 -8.453125 C 19.265625 -8.890625 19.269531 -9.375 19.28125 -9.90625 C 19.289062 -10.445312 19.347656 -11.765625 19.453125 -13.859375 L 19.34375 -13.859375 L 15.453125 0 Z M 10.484375 0 "/></g></g></g><g fill="#0d0d0d" fill-opacity="1"><g transform="translate(148.904439, 369.150476)"><g><path d="M 18.484375 -19.28125 L 18.484375 -7.671875 C 18.484375 -5.148438 17.765625 -3.195312 16.328125 -1.8125 C 14.898438 -0.425781 12.84375 0.265625 10.15625 0.265625 C 7.53125 0.265625 5.507812 -0.40625 4.09375 -1.75 C 2.6875 -3.09375 1.984375 -5.03125 1.984375 -7.5625 L 1.984375 -19.28125 L 7.21875 -19.28125 L 7.21875 -7.96875 C 7.21875 -6.601562 7.472656 -5.613281 7.984375 -5 C 8.492188 -4.382812 9.242188 -4.078125 10.234375 -4.078125 C 11.296875 -4.078125 12.066406 -4.378906 12.546875 -4.984375 C 13.023438 -5.597656 13.265625 -6.601562 13.265625 -8 L 13.265625 -19.28125 Z M 18.484375 -19.28125 "/></g></g></g><g fill="#0d0d0d" fill-opacity="1"><g transform="translate(181.920671, 369.150476)"><g><path d="M 7.296875 -7.015625 L 7.296875 0 L 2.078125 0 L 2.078125 -19.28125 L 8.40625 -19.28125 C 13.644531 -19.28125 16.265625 -17.382812 16.265625 -13.59375 C 16.265625 -11.351562 15.175781 -9.625 13 -8.40625 L 18.609375 0 L 12.703125 0 L 8.609375 -7.015625 Z M 7.296875 -10.9375 L 8.265625 -10.9375 C 10.085938 -10.9375 11 -11.738281 11 -13.34375 C 11 -14.675781 10.109375 -15.34375 8.328125 -15.34375 L 7.296875 -15.34375 Z M 7.296875 -10.9375 "/></g></g></g><g fill="#0d0d0d" fill-opacity="1"><g transform="translate(212.77314, 369.150476)"><g><path d="M 13.921875 0 L 12.96875 -3.609375 L 6.703125 -3.609375 L 5.71875 0 L 0 0 L 6.296875 -19.359375 L 13.25 -19.359375 L 19.609375 0 Z M 11.890625 -7.890625 L 11.046875 -11.046875 C 10.859375 -11.753906 10.625 -12.664062 10.34375 -13.78125 C 10.070312 -14.894531 9.890625 -15.695312 9.796875 -16.1875 C 9.722656 -15.738281 9.566406 -15 9.328125 -13.96875 C 9.097656 -12.9375 8.582031 -10.910156 7.78125 -7.890625 Z M 11.890625 -7.890625 "/></g></g></g><g fill="#0d0d0d" fill-opacity="1"><g transform="translate(244.958178, 369.150476)"><g><path d="M 18.453125 -10.046875 C 18.453125 -6.828125 17.566406 -4.347656 15.796875 -2.609375 C 14.023438 -0.867188 11.535156 0 8.328125 0 L 2.078125 0 L 2.078125 -19.28125 L 8.765625 -19.28125 C 11.859375 -19.28125 14.242188 -18.488281 15.921875 -16.90625 C 17.609375 -15.320312 18.453125 -13.035156 18.453125 -10.046875 Z M 13.046875 -9.859375 C 13.046875 -11.628906 12.695312 -12.941406 12 -13.796875 C 11.300781 -14.648438 10.238281 -15.078125 8.8125 -15.078125 L 7.296875 -15.078125 L 7.296875 -4.28125 L 8.453125 -4.28125 C 10.035156 -4.28125 11.195312 -4.738281 11.9375 -5.65625 C 12.675781 -6.570312 13.046875 -7.972656 13.046875 -9.859375 Z M 13.046875 -9.859375 "/></g></g></g><g clip-path="url(#id1)"><path fill="#0d0d0d" d="M 246.816406 246.410156 C 240.457031 250.234375 233.484375 250.363281 226.367188 250.355469 C 176.277344 250.289062 126.1875 250.34375 76.101562 250.273438 C 73.371094 250.269531 72.355469 250.9375 72.359375 253.867188 C 72.402344 266.746094 72.410156 279.628906 72.414062 292.511719 L 238.824219 292.511719 C 243.511719 292.027344 248.175781 291.164062 252.636719 289.894531 C 287.84375 279.894531 310.847656 243.972656 301.898438 205.316406 C 294.339844 172.65625 265.796875 150.507812 232.199219 150.429688 C 194.402344 150.34375 156.613281 150.375 118.816406 150.457031 C 115.839844 150.464844 114.925781 149.660156 114.929688 146.613281 C 115.027344 114.523438 114.972656 82.433594 114.957031 50.339844 C 114.957031 49.433594 115.007812 48.519531 114.957031 47.609375 C 114.847656 45.417969 116.003906 44.675781 117.941406 45.179688 C 122.4375 46.355469 127.183594 47.042969 131.335938 48.988281 C 154.292969 59.726562 166.421875 77.742188 166.734375 103.300781 C 166.851562 112.859375 166.839844 122.421875 166.679688 131.972656 C 166.632812 134.859375 167.652344 135.636719 170.425781 135.609375 C 182.152344 135.488281 193.878906 135.496094 205.597656 135.605469 C 208.289062 135.632812 209.449219 135.011719 209.402344 132.035156 C 209.238281 121.570312 209.683594 111.082031 209.210938 100.632812 C 208.847656 92.609375 208.253906 84.433594 206.375 76.664062 C 196.226562 34.667969 156.347656 2.871094 113.101562 1.976562 C 100.582031 1.714844 88.054688 1.902344 75.535156 1.894531 C 74.640625 1.894531 73.753906 2.023438 72.566406 2.113281 C 72.476562 3.054688 72.375 3.605469 72.375 4.160156 C 72.386719 65.953125 72.429688 127.746094 72.355469 189.535156 C 72.347656 192.753906 73.632812 193.234375 76.410156 193.226562 C 117.621094 193.136719 158.828125 193.144531 200.039062 193.125 C 210.851562 193.117188 221.667969 193.007812 232.480469 193.144531 C 245.601562 193.308594 256.753906 201.894531 260.03125 214.101562 C 263.40625 226.65625 258.042969 239.652344 246.816406 246.410156 Z M 246.816406 246.410156 " fill-opacity="1" fill-rule="nonzero"/></g><g clip-path="url(#id2)"><path fill="#0d0d0d" d="M 167.628906 2.097656 C 168.820312 2.039062 169.882812 1.933594 170.957031 1.929688 C 182.335938 1.914062 193.714844 1.894531 205.097656 1.921875 C 248.941406 2.050781 288.480469 32.003906 300.015625 74.371094 C 302.199219 82.390625 303.339844 90.902344 303.503906 99.21875 C 303.96875 122.300781 303.667969 145.398438 303.660156 168.492188 C 303.660156 169.492188 303.546875 170.488281 303.484375 171.492188 C 303.066406 171.839844 302.644531 172.179688 302.226562 172.527344 C 301.832031 171.640625 301.59375 170.628906 301.027344 169.871094 C 291.203125 156.835938 278.570312 147.460938 263.433594 141.488281 C 261.289062 140.640625 261.152344 139.316406 261.152344 137.542969 C 261.167969 126.054688 261.179688 114.566406 261.160156 103.074219 C 261.097656 76.097656 244.660156 54.164062 218.808594 46.539062 C 218.589844 46.476562 218.371094 46.339844 218.160156 46.347656 C 211.046875 46.511719 207.441406 42.101562 203.773438 36.648438 C 195.039062 23.683594 183.695312 13.207031 170.5625 4.691406 C 169.699219 4.140625 168.839844 3.585938 168 3.007812 C 167.863281 2.910156 167.84375 2.636719 167.628906 2.097656 Z M 167.628906 2.097656 " fill-opacity="1" fill-rule="nonzero"/></g></svg>